<!DOCTYPE svg PUBLIC "-//W3C//DTD SVG 20010904//EN" "http://www.w3.org/TR/2001/REC-SVG-20010904/DTD/svg10.dtd">
<svg version="1.0" xmlns="http://www.w3.org/2000/svg" width="1126px" height="1180px" viewBox="0 0 11260 11800" preserveAspectRatio="xMidYMid meet">
<g id="layer101" fill="#000000" stroke="none">
 <path d="M1590 5185 c-959 -53 -895 -48 -895 -65 0 -11 21 -18 80 -28 44 -7 179 -28 300 -48 121 -20 247 -36 279 -36 80 1 1678 102 1694 108 29 9 -2 22 -70 28 -40 4 -219 23 -398 41 -178 19 -338 34 -355 34 -16 -1 -302 -16 -635 -34z"/>
 <path d="M4585 4775 c-1015 -109 -1001 -107 -998 -120 2 -11 21 -15 218 -45 77 -12 176 -27 220 -35 44 -7 143 -23 220 -35 77 -12 235 -37 350 -55 236 -38 580 -93 790 -126 l141 -22 959 152 c528 84 963 155 968 158 17 10 -7 21 -60 27 -655 72 -1859 196 -1893 195 -25 -1 -436 -43 -915 -94z"/>
 <path d="M2238 4145 c-2 -2 -21 -5 -43 -8 -104 -15 -122 -17 -155 -22 -19 -2 -336 -46 -705 -96 -369 -50 -674 -95 -680 -100 -6 -6 -6 -12 0 -18 8 -7 2426 -993 2915 -1189 41 -16 401 -162 800 -325 399 -162 821 -334 938 -381 l213 -87 687 280 c378 153 818 332 977 396 160 64 299 121 310 126 11 5 664 270 1450 590 787 319 1434 585 1439 590 6 6 6 12 0 18 -9 9 -1543 221 -1597 221 -35 0 -1287 -339 -1304 -353 -10 -7 -13 -71 -13 -257 l0 -248 -352 -119 c-194 -66 -632 -214 -973 -329 l-620 -208 -970 325 -970 326 -3 252 c-2 250 -3 252 -25 261 -21 10 -1205 333 -1279 349 -20 5 -38 7 -40 6z"/>
 </g>
<g id="layer102" fill="#124375" stroke="none">
 <path d="M4569 11058 c-519 -302 -961 -559 -981 -570 l-38 -20 0 -695 0 -694 33 -13 c17 -7 215 -62 439 -122 223 -60 404 -111 401 -114 -2 -3 -199 -70 -436 -150 l-432 -145 0 -700 0 -699 215 -23 c118 -12 561 -59 984 -104 l768 -82 967 103 c531 56 970 106 975 111 6 5 4 10 -5 13 -8 2 -417 68 -909 146 -492 77 -923 146 -957 152 l-63 10 0 854 0 853 963 -322 962 -323 3 -252 c2 -251 3 -253 25 -262 39 -17 1281 -353 1302 -352 64 3 1592 216 1600 223 6 6 6 12 0 18 -6 6 -797 330 -1760 721 -962 392 -2048 833 -2412 981 -364 148 -666 269 -672 269 -8 0 -11 255 -11 864 0 476 -4 867 -8 870 -5 3 -433 -243 -953 -546z"/>
 <path d="M983 8967 c-183 -107 -339 -200 -348 -207 -13 -11 -15 -63 -13 -443 3 -370 5 -431 18 -438 8 -4 163 -27 344 -51 289 -38 325 -44 300 -55 -16 -7 -166 -58 -334 -114 -168 -56 -311 -106 -318 -112 -9 -7 -12 -103 -10 -441 l3 -431 35 -7 c19 -4 393 -25 830 -47 l795 -40 385 42 c357 39 450 57 345 65 -22 2 -407 27 -855 55 l-815 52 -5 493 c-3 270 -2 492 1 492 5 0 493 -66 689 -94 19 -3 57 -8 83 -11 27 -4 59 -9 70 -11 12 -3 40 -5 62 -5 42 0 803 206 819 221 6 6 3 12 -6 15 -8 3 -397 68 -864 143 l-849 138 -5 489 c-3 316 -9 490 -15 492 -6 2 -160 -84 -342 -190z"/>
 <path d="M3060 6559 c-1301 -115 -2381 -213 -2400 -217 l-35 -7 -3 -433 -2 -432 22 -8 c34 -12 4853 -436 4872 -429 15 6 16 82 14 869 l-3 863 -50 2 c-27 0 -1114 -93 -2415 -208z"/>
 <path d="M627 5133 c-4 -3 -7 -201 -7 -438 0 -334 3 -435 13 -442 12 -10 684 -238 700 -238 4 0 7 223 7 495 l0 495 30 0 c52 0 32 20 -22 22 -29 1 -150 17 -268 37 -118 19 -252 40 -298 46 -45 7 -85 16 -88 21 -6 10 -58 12 -67 2z"/>
 <path d="M3560 4664 c-5 -143 3 -1391 8 -1396 11 -11 1910 -648 1944 -653 25 -3 864 269 900 291 7 5 16 9 21 10 4 1 9 3 12 4 3 1 10 4 15 5 6 1 12 4 15 5 3 1 10 4 15 5 6 1 12 4 15 5 3 1 10 4 15 5 6 1 12 4 15 5 3 1 10 4 15 5 6 1 12 4 15 5 3 1 10 4 15 5 6 1 12 4 15 5 3 1 10 4 15 5 6 1 12 4 15 5 3 1 10 4 15 5 6 1 12 4 15 5 3 1 10 4 15 5 6 1 12 4 15 5 3 1 10 4 15 5 6 1 12 4 15 5 3 1 10 4 15 5 6 1 12 4 15 5 3 1 10 4 15 5 6 1 12 4 15 5 3 1 10 4 15 5 6 1 12 4 15 5 3 1 10 4 15 5 6 1 12 4 15 5 3 1 10 4 15 5 6 1 12 4 15 5 3 1 10 3 15 4 6 0 10 4 10 9 0 4 0 10 0 13 0 4 -7 1 -15 -6 -8 -7 -15 -9 -15 -5 0 4 -7 2 -15 -5 -8 -7 -15 -9 -15 -5 0 4 -7 2 -15 -5 -8 -7 -15 -9 -15 -5 0 4 -7 2 -15 -5 -8 -7 -15 -9 -15 -5 0 4 -7 2 -15 -5 -8 -7 -15 -9 -15 -5 0 4 -7 2 -15 -5 -8 -7 -15 -9 -15 -5 0 4 -7 2 -15 -5 -8 -7 -15 -9 -15 -5 0 4 -7 2 -15 -5 -8 -7 -15 -9 -15 -5 0 4 -7 2 -15 -5 -8 -7 -15 -9 -15 -5 0 4 -7 2 -15 -5 -8 -7 -15 -9 -15 -5 0 4 -7 2 -15 -5 -8 -7 -15 -9 -15 -5 0 4 -7 2 -15 -5 -8 -7 -15 -9 -15 -5 0 4 -7 2 -15 -5 -8 -7 -15 -9 -15 -5 0 4 -7 2 -15 -5 -8 -7 -15 -9 -15 -5 0 4 -7 2 -15 -5 -8 -7 -15 -9 -15 -5 0 4 -7 2 -15 -5 -8 -7 -15 -10 -15 -7 0 3 -195 -59 -432 -139 -238 -79 -436 -144 -440 -144 -14 0 -10 1684 4 1698 15 15 13 15 -152 41 -147 23 -480 75 -766 121 -100 16 -226 36 -280 45 -54 8 -139 21 -189 29 -289 47 -360 58 -449 71 -55 9 -110 18 -123 21 -13 4 -23 2 -23 -2z"/>
 <path d="M627 3923 c-4 -3 -7 -201 -7 -440 l0 -433 38 -24 c20 -13 510 -300 1087 -637 578 -336 1235 -720 1460 -852 1440 -844 2308 -1346 2316 -1341 5 3 9 356 9 868 0 679 -3 866 -12 873 -7 5 -103 46 -213 90 -110 45 -537 218 -950 386 -412 168 -883 359 -1045 424 -1330 538 -2628 1069 -2641 1080 -17 14 -32 17 -42 6z"/>
 <path d="M10195 3838 c-27 -11 -61 -24 -74 -29 -16 -6 -21 -13 -15 -19 10 -10 127 30 147 50 19 18 -11 17 -58 -2z"/>
 <path d="M9875 3708 c-27 -11 -61 -24 -74 -29 -16 -6 -21 -13 -15 -19 10 -10 127 30 147 50 19 18 -11 17 -58 -2z"/>
 <path d="M9575 3586 c-44 -18 -89 -35 -99 -39 -13 -5 -16 -11 -10 -17 9 -9 177 50 197 70 23 21 -16 15 -88 -14z"/>
 <path d="M9235 3448 c-27 -11 -61 -24 -74 -29 -16 -6 -21 -13 -15 -19 10 -10 127 30 147 50 19 18 -11 17 -58 -2z"/>
 <path d="M8965 3338 c-27 -11 -61 -24 -74 -29 -16 -6 -21 -13 -15 -19 10 -10 127 30 147 50 19 18 -11 17 -58 -2z"/>
 <path d="M8645 3208 c-27 -11 -61 -24 -74 -29 -16 -6 -21 -13 -15 -19 10 -10 127 30 147 50 19 18 -11 17 -58 -2z"/>
 <path d="M8325 3078 c-27 -11 -61 -24 -74 -29 -16 -6 -21 -13 -15 -19 10 -10 127 30 147 50 19 18 -11 17 -58 -2z"/>
 <path d="M8005 2948 c-27 -11 -61 -24 -74 -29 -16 -6 -21 -13 -15 -19 10 -10 127 30 147 50 19 18 -11 17 -58 -2z"/>
 <path d="M7705 2826 c-44 -18 -89 -35 -99 -39 -13 -5 -16 -11 -10 -17 9 -9 177 50 197 70 23 21 -16 15 -88 -14z"/>
 <path d="M7362 2684 c-12 -8 -22 -12 -22 -8 0 3 -11 -1 -25 -10 -14 -9 -25 -14 -25 -11 0 3 -9 1 -20 -5 -11 -6 -18 -16 -14 -21 4 -6 15 -4 30 6 13 8 24 13 24 10 0 -3 10 0 23 7 12 6 28 13 36 14 20 4 35 21 24 27 -6 4 -19 -1 -31 -9z"/>
 <path d="M7075 2571 c-22 -10 -44 -19 -50 -20 -5 -1 -20 -9 -32 -17 -13 -8 -23 -12 -23 -9 0 3 -9 1 -20 -5 -11 -6 -18 -16 -14 -21 4 -6 15 -4 30 6 13 8 24 13 24 10 0 -3 10 0 23 7 12 6 27 13 32 14 31 5 86 35 80 44 -8 12 -2 13 -50 -9z"/>
 <path d="M6755 2441 c-22 -10 -44 -19 -50 -20 -5 -1 -20 -9 -32 -17 -13 -8 -23 -12 -23 -9 0 3 -9 1 -20 -5 -11 -6 -18 -16 -14 -21 4 -6 15 -4 30 6 13 8 24 13 24 10 0 -3 10 0 23 7 12 6 27 13 32 14 31 5 86 35 80 44 -8 12 -2 13 -50 -9z"/>
 <path d="M6510 2342 c-8 -3 -37 -15 -65 -27 -27 -12 -54 -23 -60 -24 -5 -1 -20 -9 -32 -17 -13 -8 -23 -12 -23 -9 0 3 -9 1 -20 -5 -11 -6 -18 -16 -14 -21 4 -6 15 -4 30 6 13 8 24 13 24 10 0 -3 10 0 23 7 12 7 24 13 27 13 16 1 131 49 135 56 7 11 -7 17 -25 11z"/>
 <path d="M6190 2212 c-8 -3 -37 -15 -65 -27 -27 -12 -52 -22 -55 -22 -15 0 -50 -25 -45 -34 4 -5 15 -4 28 3 12 7 24 13 27 13 16 1 131 49 135 56 7 11 -7 17 -25 11z"/>
 <path d="M5920 2102 c-8 -3 -37 -15 -65 -27 -27 -12 -52 -22 -55 -22 -15 0 -50 -25 -45 -34 4 -5 15 -4 28 3 12 7 24 13 27 13 16 1 131 49 135 56 7 11 -7 17 -25 11z"/>
 <path d="M5571 1959 c-52 -23 -46 -44 7 -22 43 17 57 29 45 36 -5 3 -28 -3 -52 -14z"/>
 </g>
<g id="layer103" fill="#1c66b2" stroke="none">
 <path d="M5515 11598 c-3 -7 -4 -400 -3 -872 3 -751 5 -860 18 -867 8 -5 787 -322 1730 -705 943 -383 2026 -822 2405 -976 380 -155 698 -287 707 -296 14 -12 20 -12 33 -2 13 11 15 70 15 441 l0 429 -38 24 c-59 37 -4789 2798 -4840 2825 -18 9 -23 9 -27 -1z"/>
 <path d="M5517 9183 c-4 -3 -7 -395 -7 -870 0 -682 3 -865 13 -868 30 -11 1953 -312 1961 -307 12 7 -1 1383 -13 1395 -6 6 -1783 606 -1927 651 -11 3 -23 3 -27 -1z"/>
 <path d="M1320 9164 c-5 -218 3 -991 10 -998 7 -7 1574 -268 1730 -288 l25 -3 3 438 2 437 -22 10 c-13 5 -399 97 -858 204 -459 107 -847 197 -862 201 -16 4 -28 3 -28 -1z"/>
 <path d="M1320 7783 c0 -4 0 -228 0 -498 0 -404 3 -492 14 -500 11 -8 659 -53 1726 -118 l25 -2 3 434 c1 253 -2 439 -7 444 -5 5 -186 33 -403 62 -216 29 -410 56 -430 59 -21 3 -62 8 -90 11 -29 3 -62 8 -73 10 -11 2 -42 7 -70 10 -144 18 -644 86 -667 91 -16 3 -28 2 -28 -3z"/>
 <path d="M5517 6763 c-4 -3 -7 -393 -7 -865 0 -754 2 -859 15 -864 16 -6 4795 411 4855 424 l35 7 3 429 c1 266 -1 433 -7 439 -9 9 -4768 436 -4857 437 -17 0 -34 -3 -37 -7z"/>
 <path d="M3000 5130 c-30 -4 -104 -11 -165 -14 -60 -3 -175 -10 -255 -15 -80 -6 -190 -13 -245 -16 -163 -10 -236 -14 -305 -20 -36 -3 -112 -7 -170 -10 -58 -3 -132 -8 -165 -10 -33 -3 -127 -9 -209 -15 -81 -5 -152 -13 -157 -16 -5 -3 -9 -217 -9 -495 0 -442 2 -490 16 -496 9 -3 159 13 333 36 367 49 376 50 416 56 17 2 53 7 80 10 28 3 66 9 85 12 19 3 212 29 428 58 216 29 398 57 403 62 5 5 8 182 7 443 -3 378 -5 435 -18 436 -8 1 -40 -2 -70 -6z"/>
 <path d="M7435 4660 c-11 -5 -438 -75 -950 -155 -511 -81 -940 -150 -952 -155 l-23 -10 0 -859 c0 -473 3 -862 8 -864 14 -8 1927 634 1949 655 l22 21 -2 686 c-2 740 1 704 -52 681z"/>
 <path d="M10370 3910 c-14 -11 -31 -20 -38 -20 -7 0 -20 -4 -30 -9 -26 -14 -122 -56 -162 -70 -19 -7 -45 -17 -57 -22 -103 -41 -110 -44 -173 -72 -30 -13 -71 -29 -90 -36 -67 -24 -88 -33 -180 -74 -30 -13 -82 -34 -115 -46 -79 -30 -95 -36 -127 -50 -16 -6 -38 -15 -50 -20 -13 -5 -48 -20 -78 -34 -30 -13 -71 -29 -90 -36 -56 -21 -103 -40 -180 -74 -30 -13 -71 -29 -90 -36 -19 -7 -46 -18 -60 -23 -27 -11 -62 -26 -95 -39 -11 -4 -45 -18 -75 -32 -30 -13 -71 -29 -90 -36 -79 -29 -129 -49 -230 -94 -30 -13 -71 -29 -90 -36 -19 -7 -45 -17 -57 -22 -13 -5 -33 -13 -45 -18 -30 -11 -62 -25 -128 -54 -30 -13 -71 -29 -90 -36 -19 -7 -46 -18 -60 -23 -14 -6 -34 -14 -45 -19 -11 -4 -45 -18 -75 -32 -30 -13 -82 -34 -115 -46 -74 -28 -91 -35 -137 -55 -20 -9 -42 -16 -50 -16 -8 0 -18 -4 -24 -9 -7 -7 -120 -53 -219 -91 -26 -10 -58 -23 -125 -53 -30 -13 -82 -34 -115 -46 -106 -40 -113 -43 -205 -84 -30 -13 -82 -34 -115 -46 -72 -28 -85 -33 -155 -64 -30 -13 -93 -39 -140 -56 -100 -39 -108 -42 -180 -74 -30 -13 -82 -34 -115 -46 -72 -28 -84 -32 -155 -64 -30 -13 -82 -34 -115 -46 -92 -35 -135 -52 -195 -80 -25 -11 -57 -25 -72 -30 l-28 -11 0 -864 c0 -512 4 -867 9 -870 5 -4 452 252 993 568 540 316 1634 954 2430 1419 796 464 1455 850 1463 857 13 11 15 68 13 448 -2 279 -7 436 -13 438 -5 2 -21 -5 -35 -16z"/>
 </g>

</svg>